<svg xmlns="http://www.w3.org/2000/svg" xmlns:xlink="http://www.w3.org/1999/xlink" width="200" zoomAndPan="magnify" viewBox="0 0 150 83.04" height="100" preserveAspectRatio="xMidYMid meet" version="1.0"><defs><g/><clipPath id="97a9f23610"><rect x="0" width="145" y="0" height="52"/></clipPath></defs><g transform="matrix(1, 0, 0, 1, 2, 10)"><g clip-path="url(#97a9f23610)"><g fill="#fefefe" fill-opacity="1"><g transform="translate(2.187602, 41.365559)"><g><path d="M 11.96875 0.515625 C 10.570312 0.515625 9.171875 0.359375 7.765625 0.046875 C 6.367188 -0.253906 5.066406 -0.832031 3.859375 -1.6875 C 2.648438 -2.539062 1.632812 -3.734375 0.8125 -5.265625 C 0 -6.796875 -0.523438 -8.789062 -0.765625 -11.25 L 7.109375 -13.140625 C 7.347656 -11.578125 7.707031 -10.394531 8.1875 -9.59375 C 8.664062 -8.789062 9.175781 -8.257812 9.71875 -8 C 10.257812 -7.75 10.753906 -7.625 11.203125 -7.625 C 12.253906 -7.625 13.171875 -7.921875 13.953125 -8.515625 C 14.742188 -9.109375 15.140625 -10.019531 15.140625 -11.25 L 15.140625 -28.53125 L 9.203125 -28.53125 L 9.203125 -35.796875 L 24.140625 -35.796875 L 24.140625 -11.25 C 24.140625 -8.65625 23.539062 -6.488281 22.34375 -4.75 C 21.15625 -3.007812 19.628906 -1.695312 17.765625 -0.8125 C 15.910156 0.0703125 13.976562 0.515625 11.96875 0.515625 Z M 11.96875 0.515625 "/></g></g></g><g fill="#fefefe" fill-opacity="1"><g transform="translate(25.708313, 41.365559)"><g><path d="M 21.578125 0 L 12.0625 -13.34375 L 11.046875 -12.28125 L 11.046875 0 L 2 0 L 2 -35.796875 L 11.046875 -35.796875 L 11.046875 -21.6875 L 13.140625 -25.421875 L 21.125 -35.796875 L 31.703125 -35.796875 L 18.3125 -19.4375 L 32.0625 0 Z M 21.578125 0 "/></g></g></g><g fill="#fefefe" fill-opacity="1"><g transform="translate(55.518629, 41.365559)"><g/></g></g><g fill="#fefefe" fill-opacity="1"><g transform="translate(63.494839, 41.365559)"><g><path d="M 12.890625 0.5625 C 11.585938 0.5625 10.160156 0.34375 8.609375 -0.09375 C 7.066406 -0.539062 5.566406 -1.328125 4.109375 -2.453125 C 2.660156 -3.578125 1.375 -5.128906 0.25 -7.109375 L 6.140625 -11.40625 C 7.023438 -10.144531 7.898438 -9.238281 8.765625 -8.6875 C 9.640625 -8.144531 10.457031 -7.804688 11.21875 -7.671875 C 11.988281 -7.535156 12.628906 -7.46875 13.140625 -7.46875 C 14.203125 -7.46875 15.046875 -7.78125 15.671875 -8.40625 C 16.304688 -9.039062 16.625 -9.785156 16.625 -10.640625 C 16.625 -11.453125 16.382812 -12.125 15.90625 -12.65625 C 15.425781 -13.1875 14.84375 -13.613281 14.15625 -13.9375 C 13.476562 -14.257812 12.800781 -14.503906 12.125 -14.671875 C 11.195312 -14.910156 10.109375 -15.269531 8.859375 -15.75 C 7.617188 -16.226562 6.421875 -16.875 5.265625 -17.6875 C 4.109375 -18.507812 3.144531 -19.554688 2.375 -20.828125 C 1.613281 -22.109375 1.234375 -23.6875 1.234375 -25.5625 C 1.234375 -27.476562 1.582031 -29.117188 2.28125 -30.484375 C 2.976562 -31.847656 3.914062 -32.953125 5.09375 -33.796875 C 6.269531 -34.648438 7.570312 -35.28125 9 -35.6875 C 10.4375 -36.101562 11.882812 -36.3125 13.34375 -36.3125 C 15.488281 -36.3125 17.566406 -35.773438 19.578125 -34.703125 C 21.597656 -33.628906 23.289062 -31.898438 24.65625 -29.515625 L 18.71875 -25.78125 C 17.351562 -27.550781 15.679688 -28.4375 13.703125 -28.4375 C 12.753906 -28.4375 11.925781 -28.210938 11.21875 -27.765625 C 10.519531 -27.328125 10.171875 -26.613281 10.171875 -25.625 C 10.171875 -24.9375 10.398438 -24.390625 10.859375 -23.984375 C 11.328125 -23.578125 11.882812 -23.257812 12.53125 -23.03125 C 13.175781 -22.8125 13.769531 -22.632812 14.3125 -22.5 C 15.71875 -22.15625 17.09375 -21.703125 18.4375 -21.140625 C 19.78125 -20.578125 21 -19.835938 22.09375 -18.921875 C 23.1875 -18.003906 24.054688 -16.835938 24.703125 -15.421875 C 25.347656 -14.003906 25.671875 -12.273438 25.671875 -10.234375 C 25.671875 -8.359375 25.296875 -6.742188 24.546875 -5.390625 C 23.796875 -4.046875 22.789062 -2.929688 21.53125 -2.046875 C 20.269531 -1.160156 18.890625 -0.503906 17.390625 -0.078125 C 15.890625 0.347656 14.390625 0.5625 12.890625 0.5625 Z M 12.890625 0.5625 "/></g></g></g><g fill="#fefefe" fill-opacity="1"><g transform="translate(88.549715, 41.365559)"><g><path d="M 14.21875 0.609375 C 11.625 0.609375 9.28125 0.0664062 7.1875 -1.015625 C 5.09375 -2.109375 3.429688 -3.671875 2.203125 -5.703125 C 0.972656 -7.734375 0.359375 -10.144531 0.359375 -12.9375 C 0.359375 -15.664062 0.972656 -18.050781 2.203125 -20.09375 C 3.429688 -22.144531 5.09375 -23.75 7.1875 -24.90625 C 9.28125 -26.0625 11.625 -26.640625 14.21875 -26.640625 C 16.84375 -26.640625 19.203125 -26.078125 21.296875 -24.953125 C 23.390625 -23.828125 25.050781 -22.234375 26.28125 -20.171875 C 27.507812 -18.109375 28.125 -15.695312 28.125 -12.9375 C 28.125 -10.25 27.507812 -7.878906 26.28125 -5.828125 C 25.050781 -3.785156 23.390625 -2.203125 21.296875 -1.078125 C 19.203125 0.046875 16.84375 0.609375 14.21875 0.609375 Z M 14.21875 -6.796875 C 15.550781 -6.796875 16.769531 -7.296875 17.875 -8.296875 C 18.976562 -9.304688 19.53125 -10.851562 19.53125 -12.9375 C 19.53125 -14.976562 18.976562 -16.507812 17.875 -17.53125 C 16.769531 -18.5625 15.550781 -19.078125 14.21875 -19.078125 C 12.882812 -19.078125 11.671875 -18.554688 10.578125 -17.515625 C 9.492188 -16.472656 8.953125 -14.945312 8.953125 -12.9375 C 8.953125 -10.894531 9.503906 -9.359375 10.609375 -8.328125 C 11.722656 -7.304688 12.925781 -6.796875 14.21875 -6.796875 Z M 14.21875 -6.796875 "/></g></g></g><g fill="#fefefe" fill-opacity="1"><g transform="translate(116.007864, 41.365559)"><g><path d="M 13.5 -29.8125 C 12.238281 -29.8125 11.394531 -29.488281 10.96875 -28.84375 C 10.539062 -28.195312 10.328125 -27.53125 10.328125 -26.84375 L 10.328125 -25.921875 L 14.625 -25.921875 L 14.625 -19.484375 L 10.328125 -19.484375 L 10.328125 0 L 1.734375 0 L 1.734375 -19.484375 L -1.796875 -19.484375 L -1.796875 -25.921875 L 1.734375 -25.921875 L 1.734375 -27.3125 C 1.703125 -29.320312 2.113281 -30.988281 2.96875 -32.3125 C 3.820312 -33.644531 4.972656 -34.644531 6.421875 -35.3125 C 7.867188 -35.976562 9.425781 -36.3125 11.09375 -36.3125 C 12.289062 -36.3125 13.46875 -36.15625 14.625 -35.84375 L 14.625 -29.71875 C 14.414062 -29.75 14.21875 -29.769531 14.03125 -29.78125 C 13.84375 -29.800781 13.664062 -29.8125 13.5 -29.8125 Z M 13.5 -29.8125 "/></g></g></g><g fill="#fefefe" fill-opacity="1"><g transform="translate(128.279319, 41.365559)"><g><path d="M 14.21875 -19.4375 L 9.921875 -19.4375 L 9.921875 -8.90625 C 9.921875 -7.914062 10.175781 -7.222656 10.6875 -6.828125 C 11.195312 -6.429688 11.929688 -6.234375 12.890625 -6.234375 C 13.085938 -6.234375 13.296875 -6.242188 13.515625 -6.265625 C 13.742188 -6.285156 13.976562 -6.3125 14.21875 -6.34375 L 14.21875 -0.109375 C 13.675781 -0.0351562 13.125 0.03125 12.5625 0.09375 C 12 0.164062 11.457031 0.203125 10.9375 0.203125 C 9.238281 0.203125 7.671875 -0.109375 6.234375 -0.734375 C 4.804688 -1.367188 3.664062 -2.359375 2.8125 -3.703125 C 1.957031 -5.054688 1.53125 -6.769531 1.53125 -8.84375 L 1.53125 -19.4375 L -1.890625 -19.4375 L -1.890625 -25.984375 L 1.53125 -25.984375 L 1.53125 -32.0625 L 9.921875 -32.890625 L 9.921875 -25.984375 L 14.21875 -25.984375 Z M 14.21875 -19.4375 "/></g></g></g></g></g></svg>